<?xml version="1.0" encoding="iso-8859-1"?>
<!-- Generator: Adobe Illustrator 19.0.0, SVG Export Plug-In . SVG Version: 6.00 Build 0)  -->
<svg version="1.1" id="Layer_1" xmlns="http://www.w3.org/2000/svg" xmlns:xlink="http://www.w3.org/1999/xlink" x="0px" y="0px"
	 viewBox="0 0 330 330" style="enable-background:new 0 0 330 330;" xml:space="preserve">
<g>
	<path style="fill:#FFFFFF;" d="M237.52,38.05c-0.628,0-1.257,0.007-1.887,0.021c-15.508-23.684-41.682-38.033-70.521-38.069
		c-0.037,0-0.073-0.002-0.11-0.002c-28.886,0-55.106,14.356-70.63,38.071c-0.631-0.015-1.262-0.021-1.89-0.021
		c-46.607,0-84.525,37.919-84.525,84.527c0,37.921,25.304,70.709,60.693,81.088V240v30v45c0,8.284,6.716,15,15,15h81.462h81.239
		c8.284,0,15-6.716,15-15v-45v-30v-36.328c35.386-10.381,60.693-43.18,60.693-81.095C322.045,75.969,284.127,38.05,237.52,38.05z"/>
	<g>
		<g>
			<path style="fill:#D4D3D6;" d="M165.002,0c-28.886,0-55.106,14.356-70.63,38.071c-0.631-0.015-1.262-0.021-1.89-0.021
				c-46.607,0-84.525,37.919-84.525,84.527c0,37.921,25.304,70.709,60.693,81.088V240h15h15h66.462V0.002
				C165.075,0.002,165.039,0,165.002,0z"/>
			<path style="fill:#FFFFFF;" d="M237.52,38.05c-0.628,0-1.257,0.007-1.887,0.021c-15.508-23.684-41.682-38.033-70.521-38.069V240
				h66.239h15h15v-36.328c35.386-10.381,60.693-43.18,60.693-81.095C322.045,75.969,284.127,38.05,237.52,38.05z"/>
			<path style="fill:#FFFFFF;" d="M246.352,330c8.284,0,15-6.716,15-15v-45h-15h-15h-66.239v60H246.352z"/>
			<path style="fill:#D4D3D6;" d="M83.65,270h-15v45c0,8.284,6.716,15,15,15h81.462v-60H98.65H83.65z"/>
		</g>
		<rect x="68.65" y="240" style="fill:#A7A6AC;" width="192.701" height="30"/>
	</g>
</g>
<g>
</g>
<g>
</g>
<g>
</g>
<g>
</g>
<g>
</g>
<g>
</g>
<g>
</g>
<g>
</g>
<g>
</g>
<g>
</g>
<g>
</g>
<g>
</g>
<g>
</g>
<g>
</g>
<g>
</g>
</svg>
