<svg id="svg" version="2.1" xmlns="http://www.w3.org/2000/svg" xmlns:xlink="http://www.w3.org/1999/xlink" width="400" height="400" viewBox="0, 0, 400,400"><g id="svgg"><path id="path0" d="M187.175 57.845 C 169.801 60.570,154.079 68.232,141.489 80.108 L 135.889 85.392 127.905 86.043 C 50.268 92.382,30.173 195.265,99.724 230.332 L 104.525 232.753 104.802 242.492 C 105.137 254.294,106.179 256.480,111.665 256.884 C 119.622 257.470,121.201 253.799,120.916 235.385 L 120.703 221.587 113.672 219.144 C 80.778 207.716,63.981 168.238,79.099 137.891 C 90.548 114.908,115.379 100.126,139.184 102.122 L 144.510 102.569 151.196 95.466 C 179.580 65.314,221.676 65.614,249.380 96.167 L 255.078 102.450 262.109 101.969 C 289.121 100.119,315.096 118.833,323.894 146.484 C 333.194 175.716,314.833 208.129,284.375 216.248 L 279.297 217.601 278.906 267.338 C 278.464 323.641,279.064 318.782,271.930 323.828 L 268.616 326.172 200.317 326.380 C 124.273 326.611,130.121 326.988,123.514 321.429 C 116.305 315.362,116.905 302.182,124.702 295.336 C 130.313 290.410,127.291 290.625,190.795 290.621 C 258.740 290.616,257.031 290.808,257.031 283.147 C 257.031 275.237,261.375 275.689,187.891 275.950 L 125.391 276.172 120.940 278.258 C 109.138 283.790,105.081 291.649,105.080 308.984 C 105.078 326.587,108.927 334.104,120.981 340.039 L 126.138 342.578 197.543 342.793 C 276.302 343.031,274.475 343.130,282.179 338.186 C 286.992 335.098,290.362 331.206,292.890 325.817 L 294.922 321.484 295.142 277.147 L 295.362 232.810 300.220 230.362 C 338.037 211.305,353.546 166.697,335.480 128.945 C 323.436 103.777,299.919 87.822,272.157 85.984 L 264.236 85.460 257.592 79.253 C 239.574 62.421,211.812 53.981,187.175 57.845 " stroke="none" fill="#000000" fill-rule="evenodd"></path></g></svg>